<svg width="16" height="18" viewBox="0 0 16 18" fill="none" xmlns="http://www.w3.org/2000/svg">
<path fill-rule="evenodd" clip-rule="evenodd" d="M9.28033 8.47431C9.57322 8.7672 9.57322 9.24208 9.28033 9.53497L1.78033 17.035C1.48744 17.3279 1.01256 17.3279 0.71967 17.035C0.426777 16.7421 0.426777 16.2672 0.71967 15.9743L7.68934 9.00464L0.719671 2.03497C0.426777 1.74208 0.426777 1.2672 0.719671 0.974309C1.01256 0.681415 1.48744 0.681415 1.78033 0.974309L9.28033 8.47431Z" fill="#0F172A"/>
<path fill-rule="evenodd" clip-rule="evenodd" d="M15.2803 8.47431C15.5732 8.7672 15.5732 9.24208 15.2803 9.53497L7.78033 17.035C7.48744 17.3279 7.01256 17.3279 6.71967 17.035C6.42678 16.7421 6.42678 16.2672 6.71967 15.9743L13.6893 9.00464L6.71967 2.03497C6.42678 1.74208 6.42678 1.2672 6.71967 0.974309C7.01256 0.681416 7.48744 0.681416 7.78033 0.974309L15.2803 8.47431Z" fill="#0F172A"/>
</svg>
